<svg xmlns="http://www.w3.org/2000/svg" version="1.1" xmlns:xlink="http://www.w3.org/1999/xlink" xmlns:svgjs="http://svgjs.dev/svgjs" width="1500" height="1500" viewBox="0 0 1500 1500"><rect width="1500" height="1500" fill="#ffffff"></rect><g transform="matrix(0.6666666666666666,0,0,0.6666666666666666,249.39393939393938,438.5856950067477)"><svg viewBox="0 0 396 247" data-background-color="#ffffff" preserveAspectRatio="xMidYMid meet" height="935" width="1500" xmlns="http://www.w3.org/2000/svg" xmlns:xlink="http://www.w3.org/1999/xlink"><g id="tight-bounds" transform="matrix(1,0,0,1,0.2400000000000091,-0.09999999999999432)"><svg viewBox="0 0 395.52 247.2" height="247.2" width="395.52"><g><svg></svg></g><g><svg viewBox="0 0 395.52 247.2" height="247.2" width="395.52"><g transform="matrix(1,0,0,1,75.54432000000001,79.97802608777528)"><svg viewBox="0 0 244.43135999999996 87.24394782444944" height="87.24394782444944" width="244.43135999999996"><g><svg viewBox="0 0 244.43135999999996 87.24394782444944" height="87.24394782444944" width="244.43135999999996"><g><svg viewBox="0 0 244.43135999999996 87.24394782444944" height="87.24394782444944" width="244.43135999999996"><g><svg viewBox="0 0 244.43135999999996 87.24394782444944" height="87.24394782444944" width="244.43135999999996"><g id="textblocktransform"><svg viewBox="0 0 244.43135999999996 87.24394782444944" height="87.24394782444944" width="244.43135999999996" id="textblock"><g><svg viewBox="0 0 244.43135999999996 47.05521662782401" height="47.05521662782401" width="244.43135999999996"><g transform="matrix(1,0,0,1,0,0)"><svg width="244.43135999999996" viewBox="1.1 -39.04 205.3 39.53" height="47.05521662782401" data-palette-color="#aaaaaa"><path d="M11.01-19.51L11.01 0 4.35 0 4.35-19.51 1.1-19.51 1.1-26.15 4.35-26.15 4.35-27.39Q4.35-29.81 5.26-31.93 6.18-34.06 7.78-35.63 9.38-37.21 11.5-38.12 13.62-39.04 16.04-39.04L16.04-39.04 21.04-39.04 21.04-32.4 16.04-32.4Q14.97-32.4 14.05-32.02 13.13-31.64 12.46-30.97 11.79-30.3 11.4-29.38 11.01-28.47 11.01-27.39L11.01-27.39 11.01-26.15 19.19-26.15 19.19-19.51 11.01-19.51ZM29-14.4L29 0 22.34 0 22.34-26.15 23.95-26.15 26.14-23.05Q27.76-24.51 29.81-25.31 31.86-26.1 34.06-26.1L34.06-26.1 39.94-26.1 39.94-19.46 34.06-19.46Q33.01-19.46 32.08-19.07 31.15-18.68 30.47-17.99 29.78-17.31 29.39-16.38 29-15.45 29-14.4L29-14.4ZM50.9-33.25L50.9-33.25Q50.9-32.32 50.54-31.52 50.19-30.71 49.58-30.11 48.97-29.52 48.15-29.16 47.33-28.81 46.41-28.81L46.41-28.81Q45.48-28.81 44.66-29.16 43.84-29.52 43.24-30.11 42.65-30.71 42.29-31.52 41.94-32.32 41.94-33.25L41.94-33.25Q41.94-34.16 42.29-34.97 42.65-35.79 43.24-36.39 43.84-36.99 44.66-37.34 45.48-37.7 46.41-37.7L46.41-37.7Q47.33-37.7 48.15-37.34 48.97-36.99 49.58-36.39 50.19-35.79 50.54-34.97 50.9-34.16 50.9-33.25ZM49.75-26.15L49.75 0 43.04 0 43.04-26.15 49.75-26.15ZM75.24-6.64L75.24 0 53.43 0 64.45-19.46 53.43-19.46 53.43-26.1 75.24-26.1 64.23-6.64 75.24-6.64ZM100.14 0L97.94-3.05Q97.13-2.32 96.22-1.67 95.3-1.03 94.3-0.55 93.3-0.07 92.24 0.21 91.18 0.49 90.08 0.49L90.08 0.49Q87.66 0.49 85.54-0.37 83.41-1.22 81.81-2.8 80.21-4.37 79.3-6.63 78.38-8.89 78.38-11.69L78.38-11.69 78.38-26.15 85.02-26.15 85.02-11.69Q85.02-10.38 85.43-9.34 85.83-8.3 86.51-7.59 87.2-6.88 88.11-6.52 89.03-6.15 90.08-6.15L90.08-6.15Q91.1-6.15 92.02-6.63 92.93-7.1 93.62-7.89 94.3-8.67 94.69-9.66 95.08-10.64 95.08-11.69L95.08-11.69 95.08-26.15 101.75-26.15 101.75 0 100.14 0ZM113.49-14.4L113.49 0 106.82 0 106.82-26.15 108.43-26.15 110.63-23.05Q112.24-24.51 114.29-25.31 116.34-26.1 118.54-26.1L118.54-26.1 124.43-26.1 124.43-19.46 118.54-19.46Q117.49-19.46 116.56-19.07 115.64-18.68 114.95-17.99 114.27-17.31 113.88-16.38 113.49-15.45 113.49-14.4L113.49-14.4ZM152.35-26.1L152.35 0 150.74 0 148.15-3.59Q147.2-2.73 146.14-1.99 145.08-1.25 143.91-0.7 142.73-0.15 141.5 0.17 140.27 0.49 139 0.49L139 0.49Q136.24 0.49 133.81-0.44 131.38-1.37 129.56-3.14 127.74-4.91 126.69-7.47 125.64-10.03 125.64-13.31L125.64-13.31Q125.64-16.36 126.69-18.91 127.74-21.46 129.56-23.29 131.38-25.12 133.81-26.14 136.24-27.15 139-27.15L139-27.15Q140.27-27.15 141.51-26.83 142.76-26.51 143.93-25.95 145.1-25.39 146.16-24.63 147.23-23.88 148.15-23L148.15-23 150.74-26.1 152.35-26.1ZM145.64-13.31L145.64-13.31Q145.64-14.67 145.11-15.95 144.59-17.24 143.69-18.23 142.78-19.21 141.57-19.81 140.37-20.41 139-20.41L139-20.41Q137.63-20.41 136.42-19.95 135.21-19.48 134.32-18.58 133.43-17.68 132.92-16.35 132.41-15.01 132.41-13.31L132.41-13.31Q132.41-11.6 132.92-10.27 133.43-8.94 134.32-8.03 135.21-7.13 136.42-6.67 137.63-6.2 139-6.2L139-6.2Q140.37-6.2 141.57-6.8 142.78-7.4 143.69-8.39 144.59-9.38 145.11-10.66 145.64-11.94 145.64-13.31ZM177.84-6.64L177.84 0 156.04 0 167.05-19.46 156.04-19.46 156.04-26.1 177.84-26.1 166.83-6.64 177.84-6.64ZM206.4-13.31L206.4-13.31Q206.4-10.38 205.35-7.85 204.3-5.32 202.49-3.48 200.69-1.64 198.26-0.57 195.83 0.49 193.05 0.49L193.05 0.49Q190.29 0.49 187.86-0.57 185.43-1.64 183.61-3.48 181.79-5.32 180.74-7.85 179.69-10.38 179.69-13.31L179.69-13.31Q179.69-16.28 180.74-18.82 181.79-21.36 183.61-23.21 185.43-25.05 187.86-26.1 190.29-27.15 193.05-27.15L193.05-27.15Q195.83-27.15 198.26-26.16 200.69-25.17 202.49-23.35 204.3-21.53 205.35-18.98 206.4-16.43 206.4-13.31ZM199.69-13.31L199.69-13.31Q199.69-14.92 199.16-16.22 198.64-17.53 197.73-18.47 196.83-19.41 195.62-19.91 194.41-20.41 193.05-20.41L193.05-20.41Q191.68-20.41 190.47-19.91 189.26-19.41 188.37-18.47 187.48-17.53 186.97-16.22 186.45-14.92 186.45-13.31L186.45-13.31Q186.45-11.79 186.97-10.5 187.48-9.2 188.37-8.25 189.26-7.3 190.47-6.75 191.68-6.2 193.05-6.2L193.05-6.2Q194.41-6.2 195.62-6.71 196.83-7.23 197.73-8.15 198.64-9.08 199.16-10.4 199.69-11.72 199.69-13.31Z" opacity="1" transform="matrix(1,0,0,1,0,0)" fill="#000000" class="wordmark-text-0" data-fill-palette-color="primary" id="text-0"></path></svg></g></svg></g><g transform="matrix(1,0,0,1,0,58.163823948454194)"><svg viewBox="0 0 244.43135999999996 29.080123875995238" height="29.080123875995238" width="244.43135999999996"><g transform="matrix(1,0,0,1,0,0)"><svg width="244.43135999999996" viewBox="2 -35.35 301.34 35.85" height="29.080123875995238" data-palette-color="#aaaaaa"><path d="M11.15 0L2.2 0Q2 0 2-0.25L2-0.25 2.1-34.6Q2.1-34.8 2.3-34.8L2.3-34.8 11.9-34.8Q14.75-34.8 17-33.43 19.25-32.05 20.55-29.8 21.85-27.55 21.85-24.9L21.85-24.9Q21.85-22.75 20.88-20.9 19.9-19.05 18.55-17.9L18.55-17.9Q20-16.45 20.8-14.55 21.6-12.65 21.6-10.55L21.6-10.55Q21.6-7.65 20.2-5.25 18.8-2.85 16.43-1.43 14.05 0 11.15 0L11.15 0ZM8.1-28.85L8.1-21 11.9-21Q13.65-21 14.73-22.23 15.8-23.45 15.8-24.9L15.8-24.9Q15.8-26.5 14.65-27.68 13.5-28.85 11.9-28.85L11.9-28.85 8.1-28.85ZM8.1-14.95L8.05-6.1 11.15-6.1Q12.95-6.1 14.25-7.43 15.55-8.75 15.55-10.55L15.55-10.55Q15.55-12.35 14.25-13.65 12.95-14.95 11.15-14.95L11.15-14.95 8.1-14.95ZM31.09-0.25L31.09-0.25 37.29-34.6Q37.34-34.8 37.54-34.8L37.54-34.8 44.79-34.8Q44.99-34.8 45.04-34.6L45.04-34.6 50.99-0.25Q51.04 0 50.79 0L50.79 0 45.24 0Q45.04 0 44.99-0.25L44.99-0.25 44.44-3.9 37.64-3.9 37.09-0.25Q37.04 0 36.84 0L36.84 0 31.29 0Q31.09 0 31.09-0.25ZM40.89-23.3L38.64-9.25 43.44-9.25 41.39-23.3 41.09-25.15 40.89-23.3ZM68.57 0L62.92 0Q62.72 0 62.72-0.25L62.72-0.25 62.82-34.6Q62.82-34.8 63.02-34.8L63.02-34.8 73.12-34.8Q75.82-34.8 78.1-33.48 80.37-32.15 81.72-29.93 83.07-27.7 83.07-24.9L83.07-24.9Q83.07-23.05 82.52-21.58 81.97-20.1 81.22-19.07 80.47-18.05 79.87-17.55L79.87-17.55Q82.57-14.55 82.57-10.5L82.57-10.5 82.62-0.25Q82.62 0 82.37 0L82.37 0 76.72 0Q76.52 0 76.52-0.15L76.52-0.15 76.52-10.5Q76.52-12.3 75.25-13.63 73.97-14.95 72.12-14.95L72.12-14.95 68.82-14.95 68.77-0.25Q68.77 0 68.57 0L68.57 0ZM68.82-28.8L68.82-20.95 73.12-20.95Q74.67-20.95 75.87-22.1 77.07-23.25 77.07-24.9L77.07-24.9Q77.07-26.5 75.9-27.65 74.72-28.8 73.12-28.8L73.12-28.8 68.82-28.8ZM104.56 0L95.61 0Q95.41 0 95.41-0.25L95.41-0.25 95.51-34.6Q95.51-34.8 95.71-34.8L95.71-34.8 105.31-34.8Q108.16-34.8 110.41-33.43 112.66-32.05 113.96-29.8 115.26-27.55 115.26-24.9L115.26-24.9Q115.26-22.75 114.29-20.9 113.31-19.05 111.96-17.9L111.96-17.9Q113.41-16.45 114.21-14.55 115.01-12.65 115.01-10.55L115.01-10.55Q115.01-7.65 113.61-5.25 112.21-2.85 109.84-1.43 107.46 0 104.56 0L104.56 0ZM101.51-28.85L101.51-21 105.31-21Q107.06-21 108.14-22.23 109.21-23.45 109.21-24.9L109.21-24.9Q109.21-26.5 108.06-27.68 106.91-28.85 105.31-28.85L105.31-28.85 101.51-28.85ZM101.51-14.95L101.46-6.1 104.56-6.1Q106.36-6.1 107.66-7.43 108.96-8.75 108.96-10.55L108.96-10.55Q108.96-12.35 107.66-13.65 106.36-14.95 104.56-14.95L104.56-14.95 101.51-14.95ZM143.55 0L127.4 0Q127.2 0 127.2-0.25L127.2-0.25 127.25-34.6Q127.25-34.8 127.45-34.8L127.45-34.8 143.5-34.8Q143.7-34.8 143.7-34.55L143.7-34.55 143.7-28.95Q143.7-28.75 143.5-28.75L143.5-28.75 133.25-28.75 133.25-20.95 143.5-20.95Q143.7-20.95 143.7-20.75L143.7-20.75 143.75-15.1Q143.75-14.9 143.55-14.9L143.55-14.9 133.25-14.9 133.25-6.15 143.55-6.15Q143.75-6.15 143.75-5.9L143.75-5.9 143.75-0.2Q143.75 0 143.55 0L143.55 0ZM162.64 0L156.99 0Q156.79 0 156.79-0.25L156.79-0.25 156.89-34.6Q156.89-34.8 157.09-34.8L157.09-34.8 167.19-34.8Q169.89-34.8 172.16-33.48 174.44-32.15 175.79-29.93 177.14-27.7 177.14-24.9L177.14-24.9Q177.14-23.05 176.59-21.58 176.04-20.1 175.29-19.07 174.54-18.05 173.94-17.55L173.94-17.55Q176.64-14.55 176.64-10.5L176.64-10.5 176.69-0.25Q176.69 0 176.44 0L176.44 0 170.79 0Q170.59 0 170.59-0.15L170.59-0.15 170.59-10.5Q170.59-12.3 169.31-13.63 168.04-14.95 166.19-14.95L166.19-14.95 162.89-14.95 162.84-0.25Q162.84 0 162.64 0L162.64 0ZM162.89-28.8L162.89-20.95 167.19-20.95Q168.74-20.95 169.94-22.1 171.14-23.25 171.14-24.9L171.14-24.9Q171.14-26.5 169.96-27.65 168.79-28.8 167.19-28.8L167.19-28.8 162.89-28.8ZM197.82 0.5L197.82 0.5Q195.12 0.5 192.9-0.88 190.67-2.25 189.35-4.53 188.02-6.8 188.02-9.55L188.02-9.55 188.02-11.85Q188.02-12.1 188.27-12.1L188.27-12.1 193.87-12.1Q194.07-12.1 194.07-11.85L194.07-11.85 194.07-9.55Q194.07-7.9 195.17-6.73 196.27-5.55 197.82-5.55L197.82-5.55Q199.37-5.55 200.47-6.75 201.57-7.95 201.57-9.55L201.57-9.55Q201.57-11.4 199.17-12.75L199.17-12.75Q198.37-13.2 196.67-14.15 194.97-15.1 193.47-15.95L193.47-15.95Q190.72-17.55 189.4-19.98 188.07-22.4 188.07-25.45L188.07-25.45Q188.07-28.25 189.42-30.48 190.77-32.7 193-34 195.22-35.3 197.82-35.3L197.82-35.3Q200.47-35.3 202.7-33.98 204.92-32.65 206.25-30.43 207.57-28.2 207.57-25.45L207.57-25.45 207.57-21.35Q207.57-21.15 207.37-21.15L207.37-21.15 201.77-21.15Q201.57-21.15 201.57-21.35L201.57-21.35 201.52-25.45Q201.52-27.2 200.42-28.3 199.32-29.4 197.82-29.4L197.82-29.4Q196.27-29.4 195.17-28.23 194.07-27.05 194.07-25.45L194.07-25.45Q194.07-23.8 194.77-22.7 195.47-21.6 197.32-20.6L197.32-20.6Q197.57-20.45 198.3-20.08 199.02-19.7 199.87-19.23 200.72-18.75 201.4-18.4 202.07-18.05 202.22-17.95L202.22-17.95Q204.72-16.55 206.17-14.53 207.62-12.5 207.62-9.55L207.62-9.55Q207.62-6.7 206.3-4.42 204.97-2.15 202.75-0.83 200.52 0.5 197.82 0.5ZM225.56 0L219.91 0Q219.71 0 219.71-0.25L219.71-0.25 219.76-34.6Q219.76-34.8 220.01-34.8L220.01-34.8 225.56-34.8Q225.81-34.8 225.81-34.6L225.81-34.6 225.76-21 233.26-21 233.26-34.6Q233.26-34.8 233.46-34.8L233.46-34.8 239.01-34.8Q239.26-34.8 239.26-34.6L239.26-34.6 239.36-0.25Q239.36 0 239.11 0L239.11 0 233.51 0Q233.26 0 233.26-0.25L233.26-0.25 233.26-14.95 225.76-14.95 225.76-0.25Q225.76 0 225.56 0L225.56 0ZM261.3 0.5L261.3 0.5Q258.6 0.5 256.37-0.88 254.15-2.25 252.8-4.53 251.45-6.8 251.45-9.55L251.45-9.55 251.5-25.4Q251.5-28.15 252.82-30.4 254.15-32.65 256.4-34 258.65-35.35 261.3-35.35L261.3-35.35Q264-35.35 266.2-34 268.4-32.65 269.72-30.4 271.05-28.15 271.05-25.4L271.05-25.4 271.1-9.55Q271.1-6.8 269.77-4.53 268.45-2.25 266.22-0.88 264 0.5 261.3 0.5ZM261.3-5.55L261.3-5.55Q262.8-5.55 263.92-6.78 265.05-8 265.05-9.55L265.05-9.55 265-25.4Q265-27.05 263.95-28.2 262.9-29.35 261.3-29.35L261.3-29.35Q259.75-29.35 258.65-28.23 257.55-27.1 257.55-25.4L257.55-25.4 257.55-9.55Q257.55-7.9 258.65-6.73 259.75-5.55 261.3-5.55ZM289.34 0L283.74 0Q283.49 0 283.49-0.25L283.49-0.25 283.59-34.6Q283.59-34.8 283.79-34.8L283.79-34.8 293.39-34.8Q297.99-34.8 300.66-32 303.34-29.2 303.34-24.4L303.34-24.4Q303.34-20.85 301.94-18.25 300.54-15.65 298.29-14.25 296.04-12.85 293.39-12.85L293.39-12.85 289.59-12.85 289.59-0.25Q289.59 0 289.34 0L289.34 0ZM289.59-28.8L289.59-18.9 293.39-18.9Q294.99-18.9 296.16-20.43 297.34-21.95 297.34-24.4L297.34-24.4Q297.34-26.35 296.29-27.6 295.24-28.85 293.39-28.85L293.39-28.85 289.59-28.8Z" opacity="1" transform="matrix(1,0,0,1,0,0)" fill="#000000" class="slogan-text-1" data-fill-palette-color="secondary" id="text-1"></path></svg></g></svg></g></svg></g></svg></g></svg></g></svg></g></svg></g><path d="M173.178 73.978L173.178 12.921 394.537 12.921 394.537 234.279 173.178 234.279 173.178 173.222 177.422 173.222 177.422 230.036 390.293 230.036 390.293 17.164 177.422 17.164 177.422 73.978Z" fill="#000000" stroke="transparent" data-fill-palette-color="primary"></path></svg></g><defs></defs></svg><rect width="395.52" height="247.2" fill="none" stroke="none" visibility="hidden"></rect></g></svg></g></svg>