<svg xmlns="http://www.w3.org/2000/svg" version="1.1" xmlns:xlink="http://www.w3.org/1999/xlink" xmlns:svgjs="http://svgjs.dev/svgjs" width="1500" height="1500" viewBox="0 0 1500 1500"><rect width="1500" height="1500" fill="#000000"></rect><g transform="matrix(0.6666666666666666,0,0,0.6666666666666666,249.85778443113782,249.85778443113765)"><svg viewBox="0 0 334 334" data-background-color="#ffffff" preserveAspectRatio="xMidYMid meet" height="1500" width="1500" xmlns="http://www.w3.org/2000/svg" xmlns:xlink="http://www.w3.org/1999/xlink"><g id="tight-bounds" transform="matrix(1,0,0,1,0.04749999999998522,0.04750000000001364)"><svg viewBox="0 0 333.90454557049503 333.90454557049503" height="333.90454557049503" width="333.90454557049503"><g><svg></svg></g><g><svg viewBox="0 0 333.90454557049503 333.90454557049503" height="333.90454557049503" width="333.90454557049503"><g><path d="M0 166.952c0-92.205 74.747-166.952 166.952-166.952 92.205 0 166.952 74.747 166.953 166.952 0 92.205-74.747 166.952-166.953 166.953-92.205 0-166.952-74.747-166.952-166.953zM166.952 329.697c89.882 0 162.745-72.863 162.745-162.745 0-89.882-72.863-162.745-162.745-162.745-89.882 0-162.745 72.863-162.745 162.745 0 89.882 72.863 162.745 162.745 162.745z" data-fill-palette-color="tertiary" fill="#ffffff" stroke="transparent"></path><ellipse rx="160.27418187383762" ry="160.27418187383762" cx="166.95227278524752" cy="166.95227278524752" fill="#ffffff" stroke="transparent" stroke-width="0" fill-opacity="1" data-fill-palette-color="tertiary"></ellipse></g><g transform="matrix(1,0,0,1,74.0373032588586,71.17305217166896)"><svg viewBox="0 0 185.82993905277783 191.55844122715712" height="191.55844122715712" width="185.82993905277783"><g><svg viewBox="0 0 185.82993905277783 191.55844122715712" height="191.55844122715712" width="185.82993905277783"><g><svg viewBox="0 0 213.15844122715708 219.72938776182858" height="191.55844122715712" width="185.82993905277783"><g transform="matrix(1,0,0,1,0,120.50691402335775)"><svg viewBox="0 0 213.15844122715708 99.22247373847082" height="99.22247373847082" width="213.15844122715708"><g id="textblocktransform"><svg viewBox="0 0 213.15844122715708 99.22247373847082" height="99.22247373847082" width="213.15844122715708" id="textblock"><g><svg viewBox="0 0 213.15844122715708 53.51586112892396" height="53.51586112892396" width="213.15844122715708"><g transform="matrix(1,0,0,1,0,0)"><svg width="213.15844122715708" viewBox="0.6 -36.7 176.63 44.35" height="53.51586112892396" data-palette-color="#ffffff"><path d="M11.45-21.55L16.1-21.55Q16-20.45 15.2-18.65L15.2-18.65Q13.3-18.85 11.45-18.85L11.45-18.85 11.25-18.85Q10.2-6.5 9.3-0.6 8.4 5.3 6.95 7.65L6.95 7.65Q5.15 7.6 3.23 7.18 1.3 6.75 0.6 6.3L0.6 6.3Q1.8 2.6 3.03-4.85 4.25-12.3 4.6-18.6L4.6-18.6Q3.2-18.5 1.5-18.25L1.5-18.25Q1.35-18.9 1.35-19.58 1.35-20.25 1.55-21.55L1.55-21.55 4.75-21.55Q4.85-25.9 5.2-28.15L5.2-28.15Q5.8-32.15 7.98-34.43 10.15-36.7 13.6-36.7L13.6-36.7Q15.8-36.7 17.07-35.73 18.35-34.75 18.35-32.65 18.35-30.55 16.45-27.23 14.55-23.9 11.45-21.55L11.45-21.55ZM11.55-24.7Q13.5-26.35 14.6-28.35 15.7-30.35 15.7-31.98 15.7-33.6 14.65-33.6L14.65-33.6Q12.45-33.6 11.85-28.55L11.85-28.55Q11.65-26.85 11.55-24.7L11.55-24.7ZM17.15 0.15L17.15 0.15 16.8 0.15Q16.7-0.25 16.7-1.68 16.7-3.1 18.05-9.35 19.4-15.6 19.4-16.5L19.4-16.5Q19.4-18.05 18-19.9L18-19.9 17.55-20.5 17.6-21.15Q20.3-21.9 26.25-21.9L26.25-21.9Q26.85-20.6 26.85-18.25L26.85-18.25Q27.4-19.15 29.15-20.65 30.9-22.15 32.75-22.15L32.75-22.15Q35.45-22.15 35.45-17.45L35.45-17.45Q35.2-17.15 34.77-16.68 34.35-16.2 33.07-15.35 31.8-14.5 30.6-14.3L30.6-14.3Q30.55-14.3 29.75-15.65 28.95-17 28.55-17L28.55-17Q27.3-16.55 26.35-15.5L26.35-15.5Q24.05-5.15 24.05-2.1L24.05-2.1Q24.05-1 24.1-0.55L24.1-0.55Q22.35 0.15 17.15 0.15ZM44.7-19.05Q44.7-16.95 43.34-11.83 41.99-6.7 41.99-5.13 41.99-3.55 42.45-3.55L42.45-3.55Q42.74-3.55 44.74-4.5L44.74-4.5 45.34-4.8 46.2-3.05Q45.74-2.65 44.99-2.05 44.24-1.45 42.2-0.43 40.14 0.6 38.39 0.6 36.64 0.6 35.64-0.48 34.64-1.55 34.64-3.38 34.64-5.2 35.89-9.88 37.14-14.55 37.14-15.95L37.14-15.95Q37.14-18.05 35.84-19.9L35.84-19.9 35.39-20.5 35.45-21.15Q38.09-21.9 44.05-21.9L44.05-21.9Q44.7-21.15 44.7-19.05ZM38.99-27.38Q37.99-28.35 37.99-30 37.99-31.65 39.37-32.9 40.74-34.15 42.55-34.15 44.34-34.15 45.34-33.15 46.34-32.15 46.34-30.53 46.34-28.9 44.92-27.65 43.49-26.4 41.74-26.4 39.99-26.4 38.99-27.38ZM52.99-22.15L52.99-22.15 62.54-21.75Q64.14-21.75 65.59-21.9L65.59-21.9 66.04-20.3 65.09-19.2Q62.39-15.95 59.09-11.43 55.79-6.9 55.49-6.5L55.49-6.5Q60.09-4.85 62.44-4.85L62.44-4.85Q63.19-4.85 63.49-5.15L63.49-5.15Q63.94-5.6 64.64-7.1L64.64-7.1 66.14-6.75Q65.79-1.1 63.84 0.45L63.84 0.45Q62.89 1.2 61.49 1.2 60.09 1.2 57.02-0.53 53.94-2.25 52.04-2.75L52.04-2.75Q49.94 0.1 49.14 0.1 48.34 0.1 47.14-1.23 45.94-2.55 45.94-3.3 45.94-4.05 47.52-5.88 49.09-7.7 50.79-7.7L50.79-7.7Q51.14-7.7 51.34-7.65L51.34-7.65Q55.39-11.6 58.64-16.6L58.64-16.6Q54.34-16.55 52.64-16.32 50.94-16.1 49.34-15.2L49.34-15.2Q48.94-16.95 48.94-18.82 48.94-20.7 49.09-21.5L49.09-21.5Q49.74-22.15 52.99-22.15ZM67.79-3.78Q67.79-5.9 69.09-11.08 70.39-16.25 70.39-17.43 70.39-18.6 68.59-20.55L68.59-20.55 68.64-21.2Q72.04-21.9 77.59-21.9L77.59-21.9Q77.84-21.25 77.84-19.55 77.84-17.85 76.44-12.3 75.04-6.75 75.04-5.4 75.04-4.05 76.04-4.05L76.04-4.05Q77.49-4.05 79.39-5.1L79.39-5.1Q79.59-6.3 80.39-9.7L80.39-9.7Q82.19-17.7 82.19-21.15L82.19-21.15Q83.94-21.85 88.49-21.85L88.49-21.85 89.44-21.85Q89.44-19.5 88.04-12.68 86.64-5.85 86.64-4.67 86.64-3.5 87.14-3.5L87.14-3.5Q87.44-3.5 89.99-4.7L89.99-4.7 90.94-3.1Q86.49 0.6 83.14 0.6L83.14 0.6Q81.54 0.6 80.42-0.3 79.29-1.2 79.14-2.65L79.14-2.65Q75.09 0.65 71.79 0.65L71.79 0.65Q70.04 0.65 68.92-0.5 67.79-1.65 67.79-3.78ZM93.34 0.15L93.34 0.15 92.99 0.15Q92.89-0.25 92.89-1.68 92.89-3.1 94.24-9.35 95.59-15.6 95.59-16.5L95.59-16.5Q95.59-18.05 94.19-19.9L94.19-19.9 93.74-20.5 93.79-21.15Q96.49-21.9 102.44-21.9L102.44-21.9Q103.04-20.6 103.04-18.25L103.04-18.25Q103.59-19.15 105.34-20.65 107.09-22.15 108.94-22.15L108.94-22.15Q111.64-22.15 111.64-17.45L111.64-17.45Q111.39-17.15 110.96-16.68 110.54-16.2 109.26-15.35 107.99-14.5 106.79-14.3L106.79-14.3Q106.74-14.3 105.94-15.65 105.14-17 104.74-17L104.74-17Q103.49-16.55 102.54-15.5L102.54-15.5Q100.24-5.15 100.24-2.1L100.24-2.1Q100.24-1 100.29-0.55L100.29-0.55Q98.54 0.15 93.34 0.15ZM125.44-20.7L125.44-20.7Q125.54-20.8 125.99-22L125.99-22Q128.34-22 132.29-20.6L132.29-20.6Q131.04-16.45 130.29-11.93 129.54-7.4 129.54-5.48 129.54-3.55 129.94-3.55L129.94-3.55Q130.24-3.55 132.14-4.5L132.14-4.5 132.74-4.8 133.64-3.05Q133.19-2.65 132.46-2.05 131.74-1.45 129.74-0.43 127.74 0.6 126.14 0.6L126.14 0.6Q123.04 0.6 122.54-2.2L122.54-2.2Q119.34 0.6 116.76 0.6 114.19 0.6 112.41-1.4 110.64-3.4 110.64-7.7L110.64-7.7Q110.64-14.4 113.39-18.28 116.14-22.15 120.04-22.15L120.04-22.15Q122.84-22.15 125.44-20.7ZM119.74-3.65L119.74-3.65Q120.94-3.65 122.44-4.6L122.44-4.6Q122.79-11.65 124.79-18.55L124.79-18.55Q123.29-19.2 122.24-19.2L122.24-19.2Q120.44-19.2 119.16-15.68 117.89-12.15 117.89-7.9 117.89-3.65 119.74-3.65ZM139.08-22.15L139.08-22.15 148.63-21.75Q150.23-21.75 151.68-21.9L151.68-21.9 152.13-20.3 151.18-19.2Q148.48-15.95 145.18-11.43 141.88-6.9 141.58-6.5L141.58-6.5Q146.18-4.85 148.53-4.85L148.53-4.85Q149.28-4.85 149.58-5.15L149.58-5.15Q150.03-5.6 150.73-7.1L150.73-7.1 152.23-6.75Q151.88-1.1 149.93 0.45L149.93 0.45Q148.98 1.2 147.58 1.2 146.18 1.2 143.11-0.53 140.03-2.25 138.13-2.75L138.13-2.75Q136.03 0.1 135.23 0.1 134.43 0.1 133.23-1.23 132.03-2.55 132.03-3.3 132.03-4.05 133.61-5.88 135.18-7.7 136.88-7.7L136.88-7.7Q137.23-7.7 137.43-7.65L137.43-7.65Q141.48-11.6 144.73-16.6L144.73-16.6Q140.43-16.55 138.73-16.32 137.03-16.1 135.43-15.2L135.43-15.2Q135.03-16.95 135.03-18.82 135.03-20.7 135.18-21.5L135.18-21.5Q135.83-22.15 139.08-22.15ZM160.48 0.6L160.48 0.6Q157.03 0.6 155.08-1.83 153.13-4.25 153.13-8.6L153.13-8.6Q153.13-14.15 156.11-18.15 159.08-22.15 164.33-22.15L164.33-22.15 166.13-22.05Q166.98-22.5 168.03-22.5L168.03-22.5Q171.98-22.5 171.98-15.05L171.98-15.05Q174.03-15.15 176.13-15.6L176.13-15.6 176.93-15.8 177.23-13.85Q175.58-13.15 172.78-12.6L172.78-12.6 171.78-12.4Q170.83-7.15 167.93-3.28 165.03 0.6 160.48 0.6ZM163.18-3.7L163.18-3.7Q165.28-3.7 166.96-6.4 168.63-9.1 169.28-12.1L169.28-12.1Q163.93-12.1 163.93-16.1L163.93-16.1Q163.93-17.7 164.58-19.1L164.58-19.1 164.83-19.6Q164.63-19.7 164.33-19.7 164.03-19.7 163.88-19.6L163.88-19.6Q162.63-18.8 161.53-15.85 160.43-12.9 160.43-9.1L160.43-9.1Q160.43-3.7 163.18-3.7Z" opacity="1" transform="matrix(1,0,0,1,0,0)" fill="#000000" class="wordmark-text-0" data-fill-palette-color="quaternary" id="text-0"></path></svg></g></svg></g><g transform="matrix(1,0,0,1,0,66.14967156079581)"><svg viewBox="0 0 213.15844122715708 33.07280217767501" height="33.07280217767501" width="213.15844122715708"><g transform="matrix(1,0,0,1,0,0)"><svg width="213.15844122715708" viewBox="4.5 -42.3 348.04 54" height="33.07280217767501" data-palette-color="#ffffff"><path d="M17.2-28.45Q22.8-28.45 26.13-24.7 29.45-20.95 29.45-13.8L29.45-13.8Q29.45-6.65 26.13-2.9 22.8 0.85 17.2 0.85L17.2 0.85Q13.15 0.85 9.2-2.5L9.2-2.5 9.2 0 4.5 0 4.5-42.3 9.2-42.3 9.2-25.05Q13.2-28.45 17.2-28.45L17.2-28.45ZM16.55-3.5Q20.5-3.5 22.55-6.13 24.6-8.75 24.6-13.8L24.6-13.8Q24.6-18.85 22.55-21.45 20.5-24.05 16.55-24.05L16.55-24.05Q12.8-24.05 9.2-20.95L9.2-20.95 9.2-6.6Q12.9-3.5 16.55-3.5L16.55-3.5ZM53.25-27.65Q57.65-27.65 59.95-26.18 62.25-24.7 63-22.23 63.75-19.75 63.75-16L63.75-16 63.75 0 59.05 0 59.05-2.75Q57.15-0.95 55.25-0.15 53.35 0.65 51.15 0.65L51.15 0.65Q48.55 0.65 46.45-0.48 44.35-1.6 43.13-3.73 41.9-5.85 41.9-8.75L41.9-8.75Q41.9-13.25 44.7-15.73 47.5-18.2 52.25-18.2L52.25-18.2Q56-18.2 59-16.55L59-16.55Q58.95-19 58.5-20.45 58.05-21.9 56.65-22.68 55.25-23.45 52.5-23.45L52.5-23.45 48.8-23.45 48.8-27.65 53.25-27.65ZM51.8-3.4Q53.5-3.4 55.38-4.2 57.25-5 59.05-6.6L59.05-6.6 59.05-12.9Q56.25-14.3 52.95-14.3L52.95-14.3Q50.3-14.3 48.5-13.03 46.7-11.75 46.7-8.75L46.7-8.75Q46.7-5.95 48.23-4.67 49.75-3.4 51.8-3.4L51.8-3.4ZM92.51-28.25L93.66-28.25 93.66-23.85 92.51-23.85Q88.21-23.85 84.16-20.4L84.16-20.4 84.16 0 79.46 0 79.46-27.65 84.16-27.65 84.16-24.55Q88.26-28.25 92.51-28.25L92.51-28.25ZM120.31-28.45Q125.91-28.45 129.24-24.7 132.56-20.95 132.56-13.8L132.56-13.8Q132.56-6.65 129.24-2.9 125.91 0.85 120.31 0.85L120.31 0.85Q116.26 0.85 112.31-2.5L112.31-2.5 112.31 0 107.61 0 107.61-42.3 112.31-42.3 112.31-25.05Q116.31-28.45 120.31-28.45L120.31-28.45ZM119.66-3.5Q123.61-3.5 125.66-6.13 127.71-8.75 127.71-13.8L127.71-13.8Q127.71-18.85 125.66-21.45 123.61-24.05 119.66-24.05L119.66-24.05Q115.91-24.05 112.31-20.95L112.31-20.95 112.31-6.6Q116.01-3.5 119.66-3.5L119.66-3.5ZM151.07-13.45Q151.17-8.85 153.37-6.1 155.57-3.35 160.37-3.35L160.37-3.35Q164.02-3.35 168.37-5.4L168.37-5.4 169.82-1.5Q165.27 0.85 159.97 0.85L159.97 0.85Q155.57 0.85 152.47-1 149.37-2.85 147.77-6.15 146.17-9.45 146.17-13.85L146.17-13.85Q146.17-18.5 147.84-21.78 149.52-25.05 152.37-26.75 155.22-28.45 158.77-28.45L158.77-28.45Q164.22-28.45 167.32-25.05 170.42-21.65 170.42-15.3L170.42-15.3 170.42-13.45 151.07-13.45ZM158.77-24.25Q152.57-24.25 151.37-17.4L151.37-17.4 165.47-17.4Q165.22-20.9 163.57-22.58 161.92-24.25 158.77-24.25L158.77-24.25ZM198.12-28.25L199.27-28.25 199.27-23.85 198.12-23.85Q193.82-23.85 189.77-20.4L189.77-20.4 189.77 0 185.07 0 185.07-27.65 189.77-27.65 189.77-24.55Q193.87-28.25 198.12-28.25L198.12-28.25ZM221.62 0.85Q218.57 0.85 216.22 0.35 213.87-0.15 211.32-1.35L211.32-1.35 211.32-6Q216.07-3.35 221.62-3.35L221.62-3.35Q224.42-3.35 225.65-4.48 226.87-5.6 226.87-7.45L226.87-7.45Q226.87-9.25 225.9-10.1 224.92-10.95 222.72-11.55L222.72-11.55 219.47-12.35Q215.97-13.2 213.97-15.05 211.97-16.9 211.97-20.5L211.97-20.5Q211.97-24.25 214.42-26.35 216.87-28.45 221.62-28.45L221.62-28.45Q224.07-28.45 226.17-27.98 228.27-27.5 230.37-26.65L230.37-26.65 230.37-22.25Q228.32-23.2 226.32-23.73 224.32-24.25 221.77-24.25L221.77-24.25Q219.12-24.25 217.95-23.23 216.77-22.2 216.77-20.65L216.77-20.65Q216.77-18.95 217.8-18.07 218.82-17.2 220.77-16.7L220.77-16.7 224.07-15.95Q226.57-15.35 228.2-14.45 229.82-13.55 230.75-11.93 231.67-10.3 231.67-7.6L231.67-7.6Q231.67-3.55 228.95-1.35 226.22 0.85 221.62 0.85L221.62 0.85ZM260.03-28.25Q265.13-28.25 267.6-25.55 270.08-22.85 270.08-16.65L270.08-16.65 270.08 0 265.38 0 265.38-16.65Q265.38-20.55 264.05-22.2 262.73-23.85 259.38-23.85L259.38-23.85Q255.48-23.85 251.58-20.45L251.58-20.45 251.58 0 246.88 0 246.88-42.3 251.58-42.3 251.58-24.7Q255.63-28.25 260.03-28.25L260.03-28.25ZM298.73 0.85Q294.33 0.85 291.26-1.07 288.18-3 286.63-6.33 285.08-9.65 285.08-13.8L285.08-13.8Q285.08-17.95 286.63-21.28 288.18-24.6 291.26-26.53 294.33-28.45 298.73-28.45L298.73-28.45Q303.13-28.45 306.21-26.53 309.28-24.6 310.81-21.28 312.33-17.95 312.33-13.8L312.33-13.8Q312.33-9.65 310.81-6.33 309.28-3 306.21-1.07 303.13 0.85 298.73 0.85L298.73 0.85ZM298.73-3.4Q302.88-3.4 305.16-6.3 307.43-9.2 307.43-13.8L307.43-13.8Q307.43-18.4 305.16-21.28 302.88-24.15 298.73-24.15L298.73-24.15Q294.58-24.15 292.28-21.28 289.98-18.4 289.98-13.8L289.98-13.8Q289.98-9.2 292.28-6.3 294.58-3.4 298.73-3.4L298.73-3.4ZM340.29-28.45Q345.89-28.45 349.21-24.7 352.54-20.95 352.54-13.8L352.54-13.8Q352.54-6.65 349.21-2.9 345.89 0.85 340.29 0.85L340.29 0.85Q336.24 0.85 332.29-2.5L332.29-2.5 332.29 11.7 327.59 11.7 327.59-27.65 332.29-27.65 332.29-25.05Q336.29-28.45 340.29-28.45L340.29-28.45ZM339.64-3.5Q343.59-3.5 345.64-6.13 347.69-8.75 347.69-13.8L347.69-13.8Q347.69-18.85 345.64-21.45 343.59-24.05 339.64-24.05L339.64-24.05Q335.89-24.05 332.29-20.95L332.29-20.95 332.29-6.6Q335.99-3.5 339.64-3.5L339.64-3.5Z" opacity="1" transform="matrix(1,0,0,1,0,0)" fill="#000000" class="slogan-text-1" data-fill-palette-color="quaternary" id="text-1"></path></svg></g></svg></g></svg></g></svg></g><g transform="matrix(1,0,0,1,40.713262274387006,0)"><svg viewBox="0 0 131.73191667838307 107.8731035914859" height="107.8731035914859" width="131.73191667838307"><g><svg xmlns="http://www.w3.org/2000/svg" xmlns:xlink="http://www.w3.org/1999/xlink" version="1.1" x="0" y="0" viewBox="2.8689999999999998 8.439999999999998 92.65632147097067 75.87474027912795" enable-background="new 0 2.417 98.805 87.416" xml:space="preserve" height="107.8731035914859" width="131.73191667838307" class="icon-icon-0" data-fill-palette-color="quaternary" id="icon-0"><path d="M25.677 15.325c0.713 0 1.29-0.578 1.29-1.291s-0.578-1.291-1.292-1.291H13.197v-1.721h12.48c0.712 0 1.291-0.578 1.291-1.291 0-0.713-0.579-1.29-1.291-1.291H13.197l-1.292 0.001L8.887 8.44c-0.158 0-0.308 0.032-0.448 0.085-4.105 0.276-5.57 1.511-5.57 7.052l0.005 62.209c0 6.314 2.83 6.314 6.411 6.314 0 0 0.001-0.002 0.002 0 0.259 0 0.527-0.003 0.793-0.005h15.602c0.712-0.001 1.291-0.579 1.291-1.291s-0.578-1.29-1.291-1.291H13.203l0-1.648 12.479-0.001c0.713 0.001 1.291-0.577 1.291-1.291 0-0.712-0.578-1.289-1.291-1.289H13.203v-1.723l12.479 0.001c0.713-0.001 1.291-0.579 1.291-1.29 0-0.714-0.579-1.292-1.292-1.291L13.202 72.98v-1.722h12.479c0.713 0.002 1.291-0.577 1.291-1.29 0-0.712-0.578-1.29-1.291-1.291l-12.479 0.001v-1.722l12.479 0.001c0.713-0.001 1.291-0.58 1.291-1.291 0-0.714-0.579-1.292-1.291-1.291H13.202l0-1.721 12.479-0.001c0.713 0 1.291-0.578 1.291-1.291 0-0.712-0.579-1.29-1.291-1.291H13.201l0-1.721H25.68c0.713 0 1.291-0.578 1.291-1.291s-0.578-1.291-1.291-1.291H13.201v-1.72H25.68c0.713 0 1.292-0.578 1.291-1.292 0-0.712-0.578-1.29-1.29-1.29H13.2v-1.722h12.48c0.712 0.001 1.29-0.577 1.291-1.29 0-0.713-0.579-1.291-1.292-1.291H13.2v-1.721l12.48-0.001c0.712 0.001 1.291-0.577 1.291-1.291 0-0.713-0.578-1.291-1.291-1.29h-12.48v-1.721l12.48-0.001c0.712 0 1.291-0.577 1.291-1.29s-0.578-1.291-1.292-1.291H13.2l-0.001-1.722h12.479c0.714 0 1.291-0.577 1.291-1.291 0-0.712-0.578-1.29-1.291-1.29H13.199l0-1.722h12.479c0.713 0.001 1.291-0.577 1.291-1.29 0-0.714-0.58-1.291-1.292-1.291H13.199v-1.722h12.479c0.714 0 1.291-0.577 1.291-1.29s-0.577-1.291-1.291-1.291H13.198v-1.722l12.479 0.001c0.713-0.001 1.292-0.579 1.292-1.291 0-0.714-0.579-1.291-1.291-1.291h-12.48l0-1.721h12.479c0.712 0 1.291-0.578 1.291-1.291s-0.578-1.291-1.291-1.291H13.198v-1.721H25.677z" fill="#000000" data-fill-palette-color="quaternary"></path><path d="M92.874 60.368c-2.226-3.523-5.567-6.077-9.413-7.186-2.278-0.658-4.574-0.771-6.753-0.357l-6.177-9.78 16.518-27.132c1.393-2.29 0.667-5.276-1.623-6.669s-5.276-0.667-6.67 1.622L64.744 33.88 50.11 10.703c-1.431-2.267-4.427-2.944-6.694-1.512-2.267 1.43-2.945 4.428-1.514 6.695l17.206 27.253L52.916 53.31c-2.296-0.46-4.719-0.333-7.11 0.401-3.826 1.171-7.128 3.779-9.296 7.34-2.167 3.562-2.968 7.69-2.253 11.627 0.75 4.126 3.051 7.548 6.48 9.635 3.431 2.088 7.527 2.561 11.536 1.332 3.828-1.172 7.129-3.779 9.297-7.34 2.167-3.562 2.969-7.69 2.254-11.627-0.424-2.334-1.345-4.439-2.684-6.209l3.755-6.168 3.532 5.596c-1.433 1.85-2.397 4.076-2.804 6.544-0.652 3.948 0.215 8.064 2.439 11.59 2.226 3.525 5.568 6.077 9.413 7.187 4.028 1.163 8.116 0.623 11.513-1.521 3.396-2.143 5.642-5.601 6.325-9.738C95.967 68.009 95.098 63.893 92.874 60.368zM56.394 73.362c-2.629 4.327-8.063 5.83-12.136 3.355-4.073-2.474-5.242-7.988-2.612-12.315s8.062-5.829 12.136-3.355C57.853 63.522 59.024 69.034 56.394 73.362zM65 45.725c-1.43 0-2.589-1.157-2.589-2.587S63.57 40.55 65 40.549c1.43 0 2.588 1.158 2.588 2.587C67.588 44.567 66.429 45.725 65 45.725zM85.541 76.055c-4.027 2.547-9.485 1.144-12.192-3.135-2.706-4.278-1.636-9.812 2.394-12.36 4.028-2.547 9.487-1.145 12.193 3.134C90.642 67.973 89.57 73.507 85.541 76.055z" fill="#000000" data-fill-palette-color="quaternary"></path></svg></g></svg></g><g></g></svg></g></svg></g></svg></g></svg></g><defs></defs></svg><rect width="333.90454557049503" height="333.90454557049503" fill="none" stroke="none" visibility="hidden"></rect></g></svg></g></svg>